<?xml version="1.0" encoding="UTF-8" standalone="no"?>
<!-- Created with Inkscape (http://www.inkscape.org/) -->

<svg
   version="1.1"
   id="svg2"
   width="1440"
   height="536.10669"
   viewBox="0 0 1440 536.10669"
   sodipodi:docname="nawraj logo on grey bg.eps"
   xmlns:inkscape="http://www.inkscape.org/namespaces/inkscape"
   xmlns:sodipodi="http://sodipodi.sourceforge.net/DTD/sodipodi-0.dtd"
   xmlns="http://www.w3.org/2000/svg"
   xmlns:svg="http://www.w3.org/2000/svg">
  <defs
     id="defs6" />
  <sodipodi:namedview
     id="namedview4"
     pagecolor="#ffffff"
     bordercolor="#000000"
     borderopacity="0.25"
     inkscape:showpageshadow="2"
     inkscape:pageopacity="0.0"
     inkscape:pagecheckerboard="0"
     inkscape:deskcolor="#d1d1d1" />
  <g
     id="g8"
     inkscape:groupmode="layer"
     inkscape:label="ink_ext_XXXXXX"
     transform="matrix(1.3333333,0,0,-1.3333333,0,536.10667)">
    <g
       id="g10"
       transform="scale(0.1)">
      <path
         d="M 10951.6,-519.43 H -151.555 V 4189.29 H 10951.6 V -519.43"
         style="fill:#525457;fill-opacity:1;fill-rule:nonzero;stroke:none"
         id="path12" />
      <path
         d="m 890.887,1733.54 c 10.593,0 20.218,2.04 28.875,6.14 8.625,4.06 15.172,9.61 19.64,16.61 -0.562,9.33 -5.156,17.79 -13.797,25.37 -8.656,7.57 -19.109,11.39 -31.359,11.39 -12.281,0 -22.172,-3.07 -29.703,-9.2 -7.531,-6.12 -11.281,-13.86 -11.281,-23.19 0,-8.75 3.609,-15.47 10.859,-20.12 7.25,-4.69 16.172,-7 26.766,-7 m 1.672,-59.5 c -23.422,0 -41.547,7.87 -54.36,23.62 -12.828,15.75 -19.25,35.88 -19.25,60.38 0,29.76 7.813,53.67 23.438,71.75 15.609,18.08 34.828,27.12 57.703,27.12 22.312,0 40.578,-7.86 54.797,-23.62 14.218,-15.75 21.328,-37.35 21.328,-64.75 0,-29.17 -7.813,-52.22 -23.422,-69.13 -15.625,-16.92 -35.688,-25.37 -60.234,-25.37"
         style="fill:#ffffff;fill-opacity:1;fill-rule:nonzero;stroke:none"
         id="path14" />
      <path
         d="m 944.43,1049.28 -58.547,58.63 -17.578,17.5 66.078,86.63 c 12.828,-10.5 37.922,-35.29 75.297,-74.38 z m 211.62,-170.62 c -29,-14 -63.45,-25.379 -103.29,-34.129 -39.88,-8.75 -79.346,-13.121 -118.377,-13.121 -92.567,0 -162.567,22.61 -209.942,67.809 -47.406,45.222 -71.109,108.061 -71.109,188.571 0,70 23.141,134.01 69.426,192.06 46.277,58.05 111.527,103.09 195.75,135.19 l -39.328,9.62 c -22.875,5.81 -41.41,10.06 -55.614,12.69 -14.218,2.62 -30.531,3.94 -48.933,3.94 -31.238,0 -64.145,-8.19 -98.723,-24.49 l -15.047,77.86 c 15.61,21.58 35.407,39.08 59.375,52.5 23.985,13.42 48.235,20.13 72.797,20.13 18.942,0 35.817,-2.19 50.598,-6.57 14.765,-4.37 34.98,-11.53 60.652,-21.43 23.426,-9.33 44.598,-17.21 63.567,-23.61 30.109,-9.35 56.728,-15.49 79.878,-18.39 23.14,-2.92 58.14,-4.36 104.98,-4.36 l -7.52,-110.27 c -84.78,-9.92 -157.682,-28.73 -218.745,-56.42 -61.062,-27.74 -107.343,-61.13 -138.859,-100.19 -31.52,-39.08 -47.25,-80.2 -47.25,-123.39 0,-49 17.684,-85 53.105,-108.058 35.411,-23.051 90.192,-34.563 164.364,-34.563 31.797,0 61.485,1.313 89.095,3.93 27.59,2.633 61.2,6.863 100.79,12.691 l 8.36,-98"
         style="fill:#ffffff;fill-opacity:1;fill-rule:nonzero;stroke:none"
         id="path16" />
      <path
         d="m 1458.87,1664.41 -184.86,-56 8.36,62.15 187.37,56.85 -10.87,-63"
         style="fill:#ffffff;fill-opacity:1;fill-rule:nonzero;stroke:none"
         id="path18" />
      <path
         d="m 1258.1,973.16 c -41.28,0 -76.11,7.871 -104.54,23.621 l 0.83,101.499 c 30.1,-1.75 49.9,-2.62 59.39,-2.62 53.53,0 97.43,12.84 131.75,38.51 34.28,25.66 54.22,62.69 59.79,111.11 -10.59,28.58 -22.45,55.27 -35.54,80.07 -13.1,24.79 -31.93,58.47 -56.47,101.06 l 92.86,67.38 c 27.31,-50.76 48.51,-97.43 63.58,-140 15.04,-42.58 22.57,-83.43 22.57,-122.49 0,-46.67 -10.32,-89.84 -30.95,-129.52 -20.64,-39.67 -48.8,-71 -84.47,-94.06 -35.72,-23.048 -75.3,-34.56 -118.8,-34.56"
         style="fill:#ffffff;fill-opacity:1;fill-rule:nonzero;stroke:none"
         id="path20" />
      <path
         d="m 1701.44,1672.29 c 10.57,0 20.2,2.04 28.86,6.14 8.62,4.06 15.17,9.61 19.64,16.61 -0.57,9.33 -5.16,17.79 -13.79,25.37 -8.65,7.56 -19.12,11.39 -31.37,11.39 -12.27,0 -22.17,-3.07 -29.7,-9.2 -7.53,-6.13 -11.28,-13.86 -11.28,-23.19 0,-8.75 3.6,-15.47 10.85,-20.12 7.25,-4.69 16.18,-7 26.79,-7 m 1.65,-59.5 c -23.42,0 -41.54,7.87 -54.36,23.62 -12.83,15.75 -19.23,35.88 -19.23,60.38 0,29.76 7.81,53.67 23.42,71.75 15.61,18.08 34.84,27.12 57.72,27.12 22.3,0 40.56,-7.86 54.78,-23.62 14.22,-15.75 21.33,-37.35 21.33,-64.75 0,-29.17 -7.81,-52.22 -23.42,-69.13 -15.61,-16.92 -35.69,-25.37 -60.24,-25.37"
         style="fill:#ffffff;fill-opacity:1;fill-rule:nonzero;stroke:none"
         id="path22" />
      <path
         d="m 1717.33,1310.91 c 27.88,0 51.3,0.3 70.25,0.88 -4.45,27.42 -14.62,49.44 -30.51,66.06 -15.91,16.63 -34.72,24.94 -56.47,24.94 -17.3,0 -31.36,-5.25 -42.23,-15.75 -10.89,-10.5 -16.32,-23.92 -16.32,-40.25 0,-14 5.57,-23.49 16.72,-28.44 11.16,-4.97 30.67,-7.44 58.56,-7.44 m 2118.23,4.38 c 8.91,0 15.33,-4.96 19.24,-14.88 3.89,-9.94 5.84,-25.67 5.84,-47.25 0,-21.58 -3.63,-38.92 -10.86,-52.06 -7.26,-13.13 -1926.98,-19.69 -1937.54,-19.69 h -52.7 c -12.28,-63.56 -37.94,-114.2 -76.96,-151.81 -39.04,-37.631 -88.12,-56.44 -147.23,-56.44 -40.72,0 -75,7.879 -102.88,23.629 l 0.83,102.371 c 23.42,-3.5 46.55,-5.26 69.42,-5.26 48.54,0 87.69,6.87 117.54,20.57 29.82,13.72 50.87,36.02 63.15,66.94 l -75.28,1.75 c -45.17,2.94 -78.92,16.47 -101.2,40.69 -22.33,24.2 -33.47,60.51 -33.47,108.94 0,40.83 6.69,75.69 20.06,104.56 13.41,28.88 30.53,50.75 51.45,65.63 20.91,14.87 43.08,22.31 66.51,22.31 42.37,0 76.95,-19.55 103.73,-58.63 26.77,-39.07 43.19,-89.83 49.34,-152.25 13.93,0.58 1944.79,0.88 1971.01,0.88"
         style="fill:#ffffff;fill-opacity:1;fill-rule:nonzero;stroke:none"
         id="path24" />
      <path
         d="m 4053.05,1822.79 -184.86,-56 8.36,62.14 187.37,56.86 -10.87,-63"
         style="fill:#ffffff;fill-opacity:1;fill-rule:nonzero;stroke:none"
         id="path26" />
      <path
         d="m 3966.05,1564.67 -76.12,76.12 66.92,87.5 c 15.6,-14 35.13,-33.25 58.55,-57.76 l 16.73,-16.61 z M 1911.39,1181.42 c -16.72,0 -25.09,22.17 -25.09,66.5 0,21 3.22,37.47 9.62,49.43 6.41,11.94 1926.82,17.94 1939.63,17.94 22.86,0 42.52,0.88 58.99,2.63 16.44,1.73 36.66,4.65 60.64,8.75 -8.94,55.4 -22.03,107.03 -39.31,154.87 l 102.04,46.36 c 17.85,-61.83 26.77,-122.2 26.77,-181.11 0,-65.92 -22.58,-111.72 -67.77,-137.37 -15.61,-8.75 -37.34,-15.61 -65.22,-20.57 -27.9,-4.95 -1968.5,-7.43 -2000.3,-7.43"
         style="fill:#ffffff;fill-opacity:1;fill-rule:nonzero;stroke:none"
         id="path28" />
      <path
         d="m 5596.32,1353.01 c 59.5,-90.99 137.21,-136.47 233.03,-136.47 100.21,0 178.25,35.39 234.18,106.14 55.87,70.8 83.84,169.83 83.84,297.22 v 952.35 l 274.46,200.16 V 1619.9 c 0,-242.61 -60.29,-435.69 -180.77,-579.28 -107.5,-127.358 -244.71,-191.081 -411.71,-191.081 -196.03,0 -372.72,94.473 -480.18,286.551"
         style="fill:#c81c22;fill-opacity:1;fill-rule:nonzero;stroke:none"
         id="path30" />
      <path
         d="m 5236.22,1895.42 c 0,153.66 -9.35,278.49 -71.82,373.52 -59.53,90.98 -137.23,136.47 -233.04,136.47 -100.21,0 -178.25,-35.41 -234.16,-106.14 -55.88,-70.82 -83.86,-169.86 -83.86,-297.24 V 1049.7 L 4338.89,849.539 V 2002.03 c 0,242.63 60.26,435.69 180.78,579.3 107.48,127.36 244.7,191.06 411.69,191.06 196.03,0 347.76,-96.04 455.22,-288.14 84.23,-149.64 126.34,-325.5 126.34,-527.7"
         style="fill:#c81c22;fill-opacity:1;fill-rule:nonzero;stroke:none"
         id="path32" />
      <path
         d="m 5396.83,1070.23 c -120.5,143.59 -155.12,326.16 -155.12,568.78 l -9.1,425.25 280.32,-107.72 -0.16,-307.03 c 0,-127.39 27.97,-226.42 83.85,-297.22"
         style="fill:#c81c22;fill-opacity:1;fill-rule:nonzero;stroke:none"
         id="path34" />
      <path
         d="m 8883.24,1698.69 v -339.16 c 0,-48.89 -17.14,-90.97 -51.41,-126.3 -34.26,-35.28 -74.58,-52.95 -120.94,-52.95 -45.68,0 -85.67,17.67 -119.94,52.95 -34.28,35.33 -51.4,77.41 -51.4,126.3 v 339.16 h -0.02 -73.98 -0.02 v -339.16 c 0,-48.89 -17.12,-90.97 -51.4,-126.3 -34.25,-35.28 -74.57,-52.95 -120.93,-52.95 -45.7,0 -85.67,17.67 -119.95,52.95 -34.27,35.33 -51.41,77.41 -51.41,126.3 v 339.16 h -74 v -331 c 0,-75.38 23.38,-138.01 70.1,-187.93 46.73,-49.9 105.15,-74.84 175.26,-74.84 70.75,0 129.49,24.94 176.22,74.84 12.88,13.75 23.78,28.55 33.11,44.22 9.33,-15.67 20.25,-30.47 33.11,-44.22 46.74,-49.9 105.16,-74.84 175.25,-74.84 70.77,0 129.5,24.94 176.24,74.84 46.73,49.92 70.09,112.55 70.09,187.93 v 331 h -73.98"
         style="fill:#ffffff;fill-opacity:1;fill-rule:nonzero;stroke:none"
         id="path36" />
      <path
         d="m 8883.24,1698.69 v -339.16 c 0,-48.89 -17.14,-90.97 -51.41,-126.3 -34.26,-35.28 -74.58,-52.95 -120.94,-52.95 -45.68,0 -85.67,17.67 -119.94,52.95 -34.28,35.33 -51.4,77.41 -51.4,126.3 v 339.16 h -0.02 -73.98 -0.02 v -339.16 c 0,-48.89 -17.12,-90.97 -51.4,-126.3 -34.25,-35.28 -74.57,-52.95 -120.93,-52.95 -45.7,0 -85.67,17.67 -119.95,52.95 -34.27,35.33 -51.41,77.41 -51.41,126.3 v 339.16 h -74 v -331 c 0,-75.38 23.38,-138.01 70.1,-187.93 46.73,-49.9 105.15,-74.84 175.26,-74.84 70.75,0 129.49,24.94 176.22,74.84 12.88,13.75 23.78,28.55 33.11,44.22 9.33,-15.67 20.25,-30.47 33.11,-44.22 46.74,-49.9 105.16,-74.84 175.25,-74.84 70.77,0 129.5,24.94 176.24,74.84 46.73,49.92 70.09,112.55 70.09,187.93 v 331 z"
         style="fill:none;stroke:#ffffff;stroke-width:26.8126;stroke-linecap:butt;stroke-linejoin:miter;stroke-miterlimit:10;stroke-dasharray:none;stroke-opacity:1"
         id="path38" />
      <path
         d="m 8883.24,1698.69 v -339.16 c 0,-48.89 -17.14,-90.97 -51.41,-126.3 -34.26,-35.28 -74.58,-52.95 -120.94,-52.95 -45.68,0 -85.67,17.67 -119.94,52.95 -34.28,35.33 -51.4,77.41 -51.4,126.3 v 339.16 h -0.02 -73.98 -0.02 v -339.16 c 0,-48.89 -17.12,-90.97 -51.4,-126.3 -34.25,-35.28 -74.57,-52.95 -120.93,-52.95 -45.7,0 -85.67,17.67 -119.95,52.95 -34.27,35.33 -51.41,77.41 -51.41,126.3 v 339.16 h -74 v -331 c 0,-75.38 23.38,-138.01 70.1,-187.93 46.73,-49.9 105.15,-74.84 175.26,-74.84 70.75,0 129.49,24.94 176.22,74.84 12.88,13.75 23.78,28.55 33.11,44.22 9.33,-15.67 20.25,-30.47 33.11,-44.22 46.74,-49.9 105.16,-74.84 175.25,-74.84 70.77,0 129.5,24.94 176.24,74.84 46.73,49.92 70.09,112.55 70.09,187.93 v 331 h -73.98"
         style="fill:#ffffff;fill-opacity:1;fill-rule:nonzero;stroke:none"
         id="path40" />
      <path
         d="m 8883.24,1698.69 v -339.16 c 0,-48.89 -17.14,-90.97 -51.41,-126.3 -34.26,-35.28 -74.58,-52.95 -120.94,-52.95 -45.68,0 -85.67,17.67 -119.94,52.95 -34.28,35.33 -51.4,77.41 -51.4,126.3 v 339.16 h -0.02 -73.98 -0.02 v -339.16 c 0,-48.89 -17.12,-90.97 -51.4,-126.3 -34.25,-35.28 -74.57,-52.95 -120.93,-52.95 -45.7,0 -85.67,17.67 -119.95,52.95 -34.27,35.33 -51.41,77.41 -51.41,126.3 v 339.16 h -74 v -331 c 0,-75.38 23.38,-138.01 70.1,-187.93 46.73,-49.9 105.15,-74.84 175.26,-74.84 70.75,0 129.49,24.94 176.22,74.84 12.88,13.75 23.78,28.55 33.11,44.22 9.33,-15.67 20.25,-30.47 33.11,-44.22 46.74,-49.9 105.16,-74.84 175.25,-74.84 70.77,0 129.5,24.94 176.24,74.84 46.73,49.92 70.09,112.55 70.09,187.93 v 331 z"
         style="fill:none;stroke:#ffffff;stroke-width:26.8126;stroke-linecap:butt;stroke-linejoin:miter;stroke-miterlimit:10;stroke-dasharray:none;stroke-opacity:1"
         id="path42" />
      <path
         d="m 7199.43,1104.91 h -74 v 339.16 c 0,48.89 -17.14,90.97 -51.4,126.3 -34.27,35.28 -74.25,52.95 -119.96,52.95 -46.34,0 -86.67,-17.67 -120.92,-52.95 -34.28,-35.33 -51.41,-77.41 -51.41,-126.3 v -339.16 h -73.98 v 331.01 c 0,75.37 23.36,138 70.09,187.92 46.74,49.9 105.47,74.84 176.22,74.84 70.11,0 128.54,-24.94 175.27,-74.84 46.73,-49.92 70.09,-112.55 70.09,-187.92 v -331.01"
         style="fill:#ffffff;fill-opacity:1;fill-rule:nonzero;stroke:none"
         id="path44" />
      <path
         d="m 7199.43,1104.91 h -74 v 339.16 c 0,48.89 -17.14,90.97 -51.4,126.3 -34.27,35.28 -74.25,52.95 -119.96,52.95 -46.34,0 -86.67,-17.67 -120.92,-52.95 -34.28,-35.33 -51.41,-77.41 -51.41,-126.3 v -339.16 h -73.98 v 331.01 c 0,75.37 23.36,138 70.09,187.92 46.74,49.9 105.47,74.84 176.22,74.84 70.11,0 128.54,-24.94 175.27,-74.84 46.73,-49.92 70.09,-112.55 70.09,-187.92 z"
         style="fill:none;stroke:#ffffff;stroke-width:15.6251;stroke-linecap:butt;stroke-linejoin:miter;stroke-miterlimit:10;stroke-dasharray:none;stroke-opacity:1"
         id="path46" />
      <path
         d="m 7199.43,1104.91 h -74 v 339.16 c 0,48.89 -17.14,90.97 -51.4,126.3 -34.27,35.28 -74.25,52.95 -119.96,52.95 -46.34,0 -86.67,-17.67 -120.92,-52.95 -34.28,-35.33 -51.41,-77.41 -51.41,-126.3 v -339.16 h -73.98 v 331.01 c 0,75.37 23.36,138 70.09,187.92 46.74,49.9 105.47,74.84 176.22,74.84 70.11,0 128.54,-24.94 175.27,-74.84 46.73,-49.92 70.09,-112.55 70.09,-187.92 v -331.01"
         style="fill:#ffffff;fill-opacity:1;fill-rule:nonzero;stroke:none"
         id="path48" />
      <path
         d="m 7199.43,1104.91 h -74 v 339.16 c 0,48.89 -17.14,90.97 -51.4,126.3 -34.27,35.28 -74.25,52.95 -119.96,52.95 -46.34,0 -86.67,-17.67 -120.92,-52.95 -34.28,-35.33 -51.41,-77.41 -51.41,-126.3 v -339.16 h -73.98 v 331.01 c 0,75.37 23.36,138 70.09,187.92 46.74,49.9 105.47,74.84 176.22,74.84 70.11,0 128.54,-24.94 175.27,-74.84 46.73,-49.92 70.09,-112.55 70.09,-187.92 z"
         style="fill:none;stroke:#ffffff;stroke-width:26.8126;stroke-linecap:butt;stroke-linejoin:miter;stroke-miterlimit:10;stroke-dasharray:none;stroke-opacity:1"
         id="path50" />
      <path
         d="m 7835.44,1401.82 c -1.31,61.23 -22.12,113.64 -62.47,157.19 -40.34,43.54 -88.79,65.34 -145.37,65.34 -59.22,0 -109.66,-21.8 -151.29,-65.34 -41.64,-43.55 -62.79,-96.3 -63.42,-158.21 -1.31,-61.25 18.05,-114.84 58.06,-160.78 40.02,-45.92 88.32,-70.26 144.93,-72.98 61.15,-2.72 113.34,19.56 156.61,66.86 43.26,47.29 64.25,103.26 62.95,167.92 m 74,-5.61 v -4.08 -287.22 h -74 v 90.66 c -60.14,-71.99 -133.84,-106.61 -221.11,-103.89 -76.31,2.7 -141.28,33.61 -194.95,92.68 -53.66,59.07 -80.49,129.35 -80.49,210.82 0,84.87 28.88,157.69 86.66,218.47 57.75,60.75 126.89,89.45 207.37,86.06 77.9,-2.72 144.11,-33.8 198.63,-93.19 54.53,-59.42 80.47,-129.53 77.89,-210.31"
         style="fill:#ffffff;fill-opacity:1;fill-rule:nonzero;stroke:none"
         id="path52" />
      <path
         d="m 7835.44,1401.82 c -1.31,61.23 -22.12,113.64 -62.47,157.19 -40.34,43.54 -88.79,65.34 -145.37,65.34 -59.22,0 -109.66,-21.8 -151.29,-65.34 -41.64,-43.55 -62.79,-96.3 -63.42,-158.21 -1.31,-61.25 18.05,-114.84 58.06,-160.78 40.02,-45.92 88.32,-70.26 144.93,-72.98 61.15,-2.72 113.34,19.56 156.61,66.86 43.26,47.29 64.25,103.26 62.95,167.92 m 74,-5.61 v -4.08 -287.22 h -74 v 90.66 c -60.14,-71.99 -133.84,-106.61 -221.11,-103.89 -76.31,2.7 -141.28,33.61 -194.95,92.68 -53.66,59.07 -80.49,129.35 -80.49,210.82 0,84.87 28.88,157.69 86.66,218.47 57.75,60.75 126.89,89.45 207.37,86.06 77.9,-2.72 144.11,-33.8 198.63,-93.19 54.53,-59.42 80.47,-129.53 77.89,-210.31"
         style="fill:none;stroke:#ffffff;stroke-width:26.8126;stroke-linecap:butt;stroke-linejoin:miter;stroke-miterlimit:10;stroke-dasharray:none;stroke-opacity:1"
         id="path54" />
      <path
         d="m 7835.44,1401.82 c -1.31,61.23 -22.12,113.64 -62.47,157.19 -40.34,43.54 -88.79,65.34 -145.37,65.34 -59.22,0 -109.66,-21.8 -151.29,-65.34 -41.64,-43.55 -62.79,-96.3 -63.42,-158.21 -1.31,-61.25 18.05,-114.84 58.06,-160.78 40.02,-45.92 88.32,-70.26 144.93,-72.98 61.15,-2.72 113.34,19.56 156.61,66.86 43.26,47.29 64.25,103.26 62.95,167.92 z m 74,-5.61 v -291.3 h -74 v 90.66 c -60.14,-71.99 -133.84,-106.61 -221.11,-103.89 -76.31,2.7 -141.28,33.61 -194.95,92.68 -53.66,59.07 -80.49,129.35 -80.49,210.82 0,84.87 28.88,157.69 86.66,218.47 57.75,60.75 126.89,89.45 207.37,86.06 77.9,-2.72 144.11,-33.8 198.63,-93.19 54.53,-59.42 80.47,-129.53 77.89,-210.31"
         style="fill:#ffffff;fill-opacity:1;fill-rule:nonzero;stroke:none"
         id="path56" />
      <path
         d="m 7835.44,1401.82 c -1.31,61.23 -22.12,113.64 -62.47,157.19 -40.34,43.54 -88.79,65.34 -145.37,65.34 -59.22,0 -109.66,-21.8 -151.29,-65.34 -41.64,-43.55 -62.79,-96.3 -63.42,-158.21 -1.31,-61.25 18.05,-114.84 58.06,-160.78 40.02,-45.92 88.32,-70.26 144.93,-72.98 61.15,-2.72 113.34,19.56 156.61,66.86 43.26,47.29 64.25,103.26 62.95,167.92 z m 74,-5.61 v -291.3 h -74 v 90.66 c -60.14,-71.99 -133.84,-106.61 -221.11,-103.89 -76.31,2.7 -141.28,33.61 -194.95,92.68 -53.66,59.07 -80.49,129.35 -80.49,210.82 0,84.87 28.88,157.69 86.66,218.47 57.75,60.75 126.89,89.45 207.37,86.06 77.9,-2.72 144.11,-33.8 198.63,-93.19 54.53,-59.42 80.47,-129.53 77.89,-210.31 z"
         style="fill:none;stroke:#ffffff;stroke-width:26.8126;stroke-linecap:butt;stroke-linejoin:miter;stroke-miterlimit:10;stroke-dasharray:none;stroke-opacity:1"
         id="path58" />
      <path
         d="m 9318.74,1619.25 c -34.43,-1.37 -62.32,-11.2 -83.74,-29.54 -21.42,-18.33 -36.03,-34.3 -43.81,-47.86 -12.34,-22.41 -18.5,-52.3 -18.5,-89.63 v -347.31 h -77.89 v 580.55 h 69.12 v -82.5 c 15.58,31.21 38.61,55.32 69.15,72.31 27.89,15.61 56.45,22.73 85.67,21.39 v -77.41"
         style="fill:#ffffff;fill-opacity:1;fill-rule:nonzero;stroke:none"
         id="path60" />
      <path
         d="m 9318.74,1619.25 c -34.43,-1.37 -62.32,-11.2 -83.74,-29.54 -21.42,-18.33 -36.03,-34.3 -43.81,-47.86 -12.34,-22.41 -18.5,-52.3 -18.5,-89.63 v -347.31 h -77.89 v 580.55 h 69.12 v -82.5 c 15.58,31.21 38.61,55.32 69.15,72.31 27.89,15.61 56.45,22.73 85.67,21.39 z"
         style="fill:none;stroke:#ffffff;stroke-width:26.8126;stroke-linecap:butt;stroke-linejoin:miter;stroke-miterlimit:10;stroke-dasharray:none;stroke-opacity:1"
         id="path62" />
      <path
         d="m 9318.74,1619.25 c -34.43,-1.37 -62.32,-11.2 -83.74,-29.54 -21.42,-18.33 -36.03,-34.3 -43.81,-47.86 -12.34,-22.41 -18.5,-52.3 -18.5,-89.63 v -347.31 h -77.89 v 580.55 h 69.12 v -82.5 c 15.58,31.21 38.61,55.32 69.15,72.31 27.89,15.61 56.45,22.73 85.67,21.39 v -77.41"
         style="fill:#ffffff;fill-opacity:1;fill-rule:nonzero;stroke:none"
         id="path64" />
      <path
         d="m 9318.74,1619.25 c -34.43,-1.37 -62.32,-11.2 -83.74,-29.54 -21.42,-18.33 -36.03,-34.3 -43.81,-47.86 -12.34,-22.41 -18.5,-52.3 -18.5,-89.63 v -347.31 h -77.89 v 580.55 h 69.12 v -82.5 c 15.58,31.21 38.61,55.32 69.15,72.31 27.89,15.61 56.45,22.73 85.67,21.39 z"
         style="fill:none;stroke:#ffffff;stroke-width:26.8126;stroke-linecap:butt;stroke-linejoin:miter;stroke-miterlimit:10;stroke-dasharray:none;stroke-opacity:1"
         id="path66" />
      <path
         d="m 9858.35,1401.82 c -1.31,61.23 -22.13,113.64 -62.47,157.19 -40.35,43.54 -88.8,65.34 -145.38,65.34 -59.22,0 -109.65,-21.8 -151.28,-65.34 -41.64,-43.55 -62.8,-96.3 -63.42,-158.21 -1.31,-61.25 18.05,-114.84 58.06,-160.78 40.02,-45.92 88.31,-70.26 144.92,-72.98 61.16,-2.72 113.35,19.56 156.61,66.86 43.27,47.29 64.25,103.26 62.96,167.92 m 74,-5.61 v -4.08 -287.22 h -74 v 90.66 c -60.14,-71.99 -133.85,-106.61 -221.11,-103.89 -76.32,2.7 -141.28,33.61 -194.96,92.68 -53.65,59.07 -80.48,129.35 -80.48,210.82 0,84.87 28.87,157.69 86.66,218.47 57.75,60.75 126.89,89.45 207.37,86.06 77.89,-2.72 144.11,-33.8 198.63,-93.19 54.53,-59.42 80.47,-129.53 77.89,-210.31"
         style="fill:#ffffff;fill-opacity:1;fill-rule:nonzero;stroke:none"
         id="path68" />
      <path
         d="m 9858.35,1401.82 c -1.31,61.23 -22.13,113.64 -62.47,157.19 -40.35,43.54 -88.8,65.34 -145.38,65.34 -59.22,0 -109.65,-21.8 -151.28,-65.34 -41.64,-43.55 -62.8,-96.3 -63.42,-158.21 -1.31,-61.25 18.05,-114.84 58.06,-160.78 40.02,-45.92 88.31,-70.26 144.92,-72.98 61.16,-2.72 113.35,19.56 156.61,66.86 43.27,47.29 64.25,103.26 62.96,167.92 m 74,-5.61 v -4.08 -287.22 h -74 v 90.66 c -60.14,-71.99 -133.85,-106.61 -221.11,-103.89 -76.32,2.7 -141.28,33.61 -194.96,92.68 -53.65,59.07 -80.48,129.35 -80.48,210.82 0,84.87 28.87,157.69 86.66,218.47 57.75,60.75 126.89,89.45 207.37,86.06 77.89,-2.72 144.11,-33.8 198.63,-93.19 54.53,-59.42 80.47,-129.53 77.89,-210.31"
         style="fill:none;stroke:#ffffff;stroke-width:26.8126;stroke-linecap:butt;stroke-linejoin:miter;stroke-miterlimit:10;stroke-dasharray:none;stroke-opacity:1"
         id="path70" />
      <path
         d="m 9858.35,1401.82 c -1.31,61.23 -22.13,113.64 -62.47,157.19 -40.35,43.54 -88.8,65.34 -145.38,65.34 -59.22,0 -109.65,-21.8 -151.28,-65.34 -41.64,-43.55 -62.8,-96.3 -63.42,-158.21 -1.31,-61.25 18.05,-114.84 58.06,-160.78 40.02,-45.92 88.31,-70.26 144.92,-72.98 61.16,-2.72 113.35,19.56 156.61,66.86 43.27,47.29 64.25,103.26 62.96,167.92 z m 74,-5.61 v -291.3 h -74 v 90.66 c -60.14,-71.99 -133.85,-106.61 -221.11,-103.89 -76.32,2.7 -141.28,33.61 -194.96,92.68 -53.65,59.07 -80.48,129.35 -80.48,210.82 0,84.87 28.87,157.69 86.66,218.47 57.75,60.75 126.89,89.45 207.37,86.06 77.89,-2.72 144.11,-33.8 198.63,-93.19 54.53,-59.42 80.47,-129.53 77.89,-210.31"
         style="fill:#ffffff;fill-opacity:1;fill-rule:nonzero;stroke:none"
         id="path72" />
      <path
         d="m 9858.35,1401.82 c -1.31,61.23 -22.13,113.64 -62.47,157.19 -40.35,43.54 -88.8,65.34 -145.38,65.34 -59.22,0 -109.65,-21.8 -151.28,-65.34 -41.64,-43.55 -62.8,-96.3 -63.42,-158.21 -1.31,-61.25 18.05,-114.84 58.06,-160.78 40.02,-45.92 88.31,-70.26 144.92,-72.98 61.16,-2.72 113.35,19.56 156.61,66.86 43.27,47.29 64.25,103.26 62.96,167.92 z m 74,-5.61 v -291.3 h -74 v 90.66 c -60.14,-71.99 -133.85,-106.61 -221.11,-103.89 -76.32,2.7 -141.28,33.61 -194.96,92.68 -53.65,59.07 -80.48,129.35 -80.48,210.82 0,84.87 28.87,157.69 86.66,218.47 57.75,60.75 126.89,89.45 207.37,86.06 77.89,-2.72 144.11,-33.8 198.63,-93.19 54.53,-59.42 80.47,-129.53 77.89,-210.31 z"
         style="fill:none;stroke:#ffffff;stroke-width:26.8126;stroke-linecap:butt;stroke-linejoin:miter;stroke-miterlimit:10;stroke-dasharray:none;stroke-opacity:1"
         id="path74" />
      <path
         d="m 10146.7,1752.68 h -77 v 137.48 h 77 z m 0,-662.02 c 0,-53.64 -9.3,-91.308 -27.7,-113.051 -21.7,-26.48 -52,-43.449 -90.8,-50.918 l -20.8,-4.082 v 77.411 c 23.4,2.03 40.6,12.56 51.6,31.56 7.2,12.22 10.7,36.67 10.7,73.33 v 581.55 h 77 v -595.8"
         style="fill:#ffffff;fill-opacity:1;fill-rule:nonzero;stroke:none"
         id="path76" />
      <path
         d="m 10146.7,1752.68 h -77 v 137.48 h 77 z m 0,-662.02 c 0,-53.64 -9.3,-91.308 -27.7,-113.051 -21.7,-26.48 -52,-43.449 -90.8,-50.918 l -20.8,-4.082 v 77.411 c 23.4,2.03 40.6,12.56 51.6,31.56 7.2,12.22 10.7,36.67 10.7,73.33 v 581.55 h 77 z"
         style="fill:none;stroke:#ffffff;stroke-width:26.8126;stroke-linecap:butt;stroke-linejoin:miter;stroke-miterlimit:10;stroke-dasharray:none;stroke-opacity:1"
         id="path78" />
      <path
         d="m 10146.7,1752.68 h -77 v 137.48 h 77 z m 0,-662.02 c 0,-53.64 -9.3,-91.308 -27.7,-113.051 -21.7,-26.48 -52,-43.449 -90.8,-50.918 l -20.8,-4.082 v 77.411 c 23.4,2.03 40.6,12.56 51.6,31.56 7.2,12.22 10.7,36.67 10.7,73.33 v 581.55 h 77 v -595.8"
         style="fill:#ffffff;fill-opacity:1;fill-rule:nonzero;stroke:none"
         id="path80" />
      <path
         d="m 10146.7,1752.68 h -77 v 137.48 h 77 z m 0,-662.02 c 0,-53.64 -9.3,-91.308 -27.7,-113.051 -21.7,-26.48 -52,-43.449 -90.8,-50.918 l -20.8,-4.082 v 77.411 c 23.4,2.03 40.6,12.56 51.6,31.56 7.2,12.22 10.7,36.67 10.7,73.33 v 581.55 h 77 z"
         style="fill:none;stroke:#ffffff;stroke-width:26.8126;stroke-linecap:butt;stroke-linejoin:miter;stroke-miterlimit:10;stroke-dasharray:none;stroke-opacity:1"
         id="path82" />
      <path
         d="m 5951.19,2831.18 c -12.1,0 -21.91,9.83 -21.91,21.9 0,12.14 9.81,21.92 21.91,21.92 12.09,0 21.89,-9.78 21.89,-21.92 0,-12.07 -9.8,-21.9 -21.89,-21.9 z m 0,129.87 c 12.08,0 21.9,-9.75 21.9,-21.86 0,-12.07 -9.82,-21.86 -21.9,-21.86 -12.1,0 -21.92,9.79 -21.92,21.86 0,12.11 9.82,21.86 21.92,21.86 z m -86.15,-43.72 c -12.14,0 -21.87,9.79 -21.87,21.86 0,12.11 9.73,21.86 21.87,21.86 12.12,0 21.86,-9.75 21.86,-21.86 0,-12.07 -9.74,-21.86 -21.86,-21.86 z m -0.01,-86.15 c -12.11,0 -21.86,9.83 -21.86,21.9 0,12.14 9.75,21.92 21.86,21.92 12.14,0 21.85,-9.78 21.85,-21.92 0,-12.07 -9.71,-21.9 -21.85,-21.9 z m 0,-86.16 c -12.11,0 -21.86,9.79 -21.86,21.86 0,12.07 9.75,21.86 21.86,21.86 12.14,0 21.85,-9.79 21.85,-21.86 0,-12.07 -9.71,-21.86 -21.85,-21.86 z m -86.14,172.31 c -12.09,0 -21.92,9.79 -21.92,21.86 0,12.11 9.83,21.86 21.92,21.86 12.07,0 21.9,-9.75 21.9,-21.86 0,-12.07 -9.83,-21.86 -21.9,-21.86 z m -0.01,-86.15 c -12.1,0 -21.9,9.83 -21.9,21.9 0,12.14 9.8,21.92 21.9,21.92 12.09,0 21.9,-9.78 21.9,-21.92 0,-12.07 -9.81,-21.9 -21.9,-21.9 z m 0,-86.16 c -12.1,0 -21.9,9.79 -21.9,21.86 0,12.07 9.8,21.86 21.9,21.86 12.09,0 21.9,-9.79 21.9,-21.86 0,-12.07 -9.81,-21.86 -21.9,-21.86 z m -86.14,172.31 c -12.18,0 -21.88,9.79 -21.88,21.86 0,12.11 9.7,21.86 21.88,21.86 12.12,0 21.82,-9.75 21.82,-21.86 0,-12.07 -9.7,-21.86 -21.82,-21.86 z m -0.01,-86.15 c -12.15,0 -21.86,9.83 -21.86,21.9 0,12.14 9.71,21.92 21.86,21.92 12.13,0 21.81,-9.78 21.81,-21.92 0,-12.07 -9.68,-21.9 -21.81,-21.9 z m 0,-86.16 c -12.15,0 -21.86,9.79 -21.86,21.86 0,12.07 9.71,21.86 21.86,21.86 12.13,0 21.81,-9.79 21.81,-21.86 0,-12.07 -9.68,-21.86 -21.81,-21.86 z m -86.18,172.31 c -12.1,0 -21.89,9.79 -21.89,21.86 0,12.11 9.79,21.86 21.89,21.86 12.15,0 21.94,-9.75 21.94,-21.86 0,-12.07 -9.79,-21.86 -21.94,-21.86 z m -0.01,-86.15 c -12.1,0 -21.86,9.83 -21.86,21.9 0,12.14 9.76,21.92 21.86,21.92 12.15,0 21.94,-9.78 21.94,-21.92 0,-12.07 -9.79,-21.9 -21.94,-21.9 z m 0,216.09 c 12.15,0 21.94,-9.79 21.94,-21.86 0,-12.14 -9.79,-21.97 -21.94,-21.97 -12.1,0 -21.86,9.83 -21.86,21.97 0,12.07 9.76,21.86 21.86,21.86 z m 86.19,0 c 12.13,0 21.81,-9.79 21.81,-21.86 0,-12.14 -9.68,-21.97 -21.81,-21.97 -12.15,0 -21.86,9.83 -21.86,21.97 0,12.07 9.71,21.86 21.86,21.86 z m 0,86.16 c 12.13,0 21.81,-9.79 21.81,-21.93 0,-12.07 -9.68,-21.9 -21.81,-21.9 -12.15,0 -21.86,9.83 -21.86,21.9 0,12.14 9.71,21.93 21.86,21.93 z m 86.15,-86.16 c 12.09,0 21.9,-9.79 21.9,-21.86 0,-12.14 -9.81,-21.97 -21.9,-21.97 -12.1,0 -21.9,9.83 -21.9,21.97 0,12.07 9.8,21.86 21.9,21.86 z m 0,86.16 c 12.09,0 21.9,-9.79 21.9,-21.93 0,-12.07 -9.81,-21.9 -21.9,-21.9 -12.1,0 -21.9,9.83 -21.9,21.9 0,12.14 9.8,21.93 21.9,21.93 z m 86.15,-86.16 c 12.14,0 21.85,-9.79 21.85,-21.86 0,-12.14 -9.71,-21.97 -21.85,-21.97 -12.11,0 -21.86,9.83 -21.86,21.97 0,12.07 9.75,21.86 21.86,21.86 z m 0,86.16 c 12.14,0 21.85,-9.79 21.85,-21.93 0,-12.07 -9.71,-21.9 -21.85,-21.9 -12.11,0 -21.86,9.83 -21.86,21.9 0,12.14 9.75,21.93 21.86,21.93 z m 86.16,-86.16 c 12.09,0 21.89,-9.79 21.89,-21.86 0,-12.14 -9.8,-21.97 -21.89,-21.97 -12.1,0 -21.91,9.83 -21.91,21.97 0,12.07 9.81,21.86 21.91,21.86 z m 9.63,75.79 c -44.22,44.19 -104.24,66.36 -180.05,66.36 -75.81,0 -136.5,-22.77 -181.97,-68.25 -45.46,-45.51 -68.25,-104.89 -68.25,-178.18 0,-78.34 22.79,-140.25 68.25,-185.76 45.47,-45.47 106.16,-68.21 181.97,-68.21 164.24,0 246.44,84.64 246.44,253.97 0,75.82 -22.18,135.81 -66.39,180.07"
         style="fill:#ffffff;fill-opacity:1;fill-rule:nonzero;stroke:none"
         id="path84" />
    </g>
  </g>
</svg>
